<?xml version="1.0" encoding="iso-8859-1"?>
<!-- Uploaded to: SVG Repo, www.svgrepo.com, Generator: SVG Repo Mixer Tools -->
<!DOCTYPE svg PUBLIC "-//W3C//DTD SVG 1.1//EN" "http://www.w3.org/Graphics/SVG/1.1/DTD/svg11.dtd">
<svg fill="#000000" version="1.1" id="Capa_1" xmlns="http://www.w3.org/2000/svg" xmlns:xlink="http://www.w3.org/1999/xlink" 
	 width="800px" height="800px" viewBox="0 0 219.719 219.719"
	 xml:space="preserve">
<g>
	<g>
		<rect x="39.979" y="61.817" width="139.76" height="139.76"/>
		<path d="M195.194,43.675h-51.728L112.022,1.092c-0.507-0.683-1.301-1.086-2.147-1.092c-0.005,0-0.011,0-0.016,0
			c-0.843,0-1.638,0.399-2.144,1.071L75.597,43.675H24.525c-1.483,0-2.688,1.205-2.688,2.688v170.668
			c0,1.485,1.205,2.688,2.688,2.688h170.668c1.485,0,2.688-1.202,2.688-2.688V46.363C197.881,44.88,196.684,43.675,195.194,43.675z
			 M109.838,7.184l26.951,36.492H82.327L109.838,7.184z M185.115,204.265c0,1.485-1.207,2.688-2.688,2.688H37.292
			c-1.483,0-2.688-1.202-2.688-2.688V59.129c0-1.483,1.205-2.688,2.688-2.688h145.135c1.48,0,2.688,1.205,2.688,2.688V204.265z"/>
	</g>
</g>
</svg>